<mxfile host="app.diagrams.net" modified="2023-08-04T21:03:16.469Z" agent="Mozilla/5.0 (Windows NT 10.0; Win64; x64) AppleWebKit/537.36 (KHTML, like Gecko) Chrome/115.0.0.0 Safari/537.36" etag="VxLUlNe6H_v_Sq1C7ugR" version="21.6.6" type="github">
  <diagram id="R2lEEEUBdFMjLlhIrx00" name="Page-1">
    <mxGraphModel dx="1050" dy="534" grid="1" gridSize="10" guides="1" tooltips="1" connect="1" arrows="1" fold="1" page="1" pageScale="1" pageWidth="850" pageHeight="1100" math="0" shadow="0" extFonts="Permanent Marker^https://fonts.googleapis.com/css?family=Permanent+Marker">
      <root>
        <mxCell id="0" />
        <mxCell id="1" parent="0" />
        <mxCell id="peCus3ESyjW79y-jE3jF-12" style="edgeStyle=orthogonalEdgeStyle;rounded=0;orthogonalLoop=1;jettySize=auto;html=1;exitX=0.5;exitY=1;exitDx=0;exitDy=0;entryX=0.5;entryY=0;entryDx=0;entryDy=0;endArrow=none;endFill=0;" edge="1" parent="1" source="peCus3ESyjW79y-jE3jF-1" target="peCus3ESyjW79y-jE3jF-2">
          <mxGeometry relative="1" as="geometry" />
        </mxCell>
        <mxCell id="peCus3ESyjW79y-jE3jF-22" style="edgeStyle=orthogonalEdgeStyle;rounded=0;orthogonalLoop=1;jettySize=auto;html=1;exitX=1;exitY=0.5;exitDx=0;exitDy=0;entryX=0;entryY=0.5;entryDx=0;entryDy=0;endArrow=none;endFill=0;" edge="1" parent="1" source="peCus3ESyjW79y-jE3jF-1" target="peCus3ESyjW79y-jE3jF-21">
          <mxGeometry relative="1" as="geometry" />
        </mxCell>
        <mxCell id="peCus3ESyjW79y-jE3jF-1" value="Persona" style="whiteSpace=wrap;html=1;align=center;" vertex="1" parent="1">
          <mxGeometry x="393" y="180" width="60" height="30" as="geometry" />
        </mxCell>
        <mxCell id="peCus3ESyjW79y-jE3jF-13" style="edgeStyle=orthogonalEdgeStyle;rounded=0;orthogonalLoop=1;jettySize=auto;html=1;exitX=0;exitY=0.5;exitDx=0;exitDy=0;endArrow=none;endFill=0;" edge="1" parent="1" source="peCus3ESyjW79y-jE3jF-2" target="peCus3ESyjW79y-jE3jF-3">
          <mxGeometry relative="1" as="geometry">
            <mxPoint x="340" y="250" as="sourcePoint" />
          </mxGeometry>
        </mxCell>
        <mxCell id="peCus3ESyjW79y-jE3jF-14" style="edgeStyle=orthogonalEdgeStyle;rounded=0;orthogonalLoop=1;jettySize=auto;html=1;exitX=1;exitY=0.5;exitDx=0;exitDy=0;entryX=0.5;entryY=0;entryDx=0;entryDy=0;endArrow=none;endFill=0;" edge="1" parent="1" source="peCus3ESyjW79y-jE3jF-2" target="peCus3ESyjW79y-jE3jF-4">
          <mxGeometry relative="1" as="geometry">
            <mxPoint x="490" y="250" as="sourcePoint" />
          </mxGeometry>
        </mxCell>
        <mxCell id="peCus3ESyjW79y-jE3jF-2" value="S" style="ellipse;whiteSpace=wrap;html=1;" vertex="1" parent="1">
          <mxGeometry x="408" y="240" width="30" height="20" as="geometry" />
        </mxCell>
        <mxCell id="peCus3ESyjW79y-jE3jF-30" style="edgeStyle=orthogonalEdgeStyle;rounded=0;orthogonalLoop=1;jettySize=auto;html=1;exitX=0.5;exitY=1;exitDx=0;exitDy=0;endArrow=none;endFill=0;" edge="1" parent="1" source="peCus3ESyjW79y-jE3jF-3" target="peCus3ESyjW79y-jE3jF-17">
          <mxGeometry relative="1" as="geometry" />
        </mxCell>
        <mxCell id="peCus3ESyjW79y-jE3jF-3" value="Cliente" style="whiteSpace=wrap;html=1;align=center;" vertex="1" parent="1">
          <mxGeometry x="225" y="310" width="50" height="30" as="geometry" />
        </mxCell>
        <mxCell id="peCus3ESyjW79y-jE3jF-26" style="edgeStyle=orthogonalEdgeStyle;rounded=0;orthogonalLoop=1;jettySize=auto;html=1;exitX=0.5;exitY=1;exitDx=0;exitDy=0;entryX=0.5;entryY=0;entryDx=0;entryDy=0;endArrow=none;endFill=0;" edge="1" parent="1" source="peCus3ESyjW79y-jE3jF-4" target="peCus3ESyjW79y-jE3jF-18">
          <mxGeometry relative="1" as="geometry" />
        </mxCell>
        <mxCell id="peCus3ESyjW79y-jE3jF-4" value="Proveedor" style="whiteSpace=wrap;html=1;align=center;" vertex="1" parent="1">
          <mxGeometry x="550" y="310" width="60" height="30" as="geometry" />
        </mxCell>
        <mxCell id="peCus3ESyjW79y-jE3jF-5" value="Pedido" style="whiteSpace=wrap;html=1;align=center;" vertex="1" parent="1">
          <mxGeometry x="220" y="520" width="60" height="30" as="geometry" />
        </mxCell>
        <mxCell id="peCus3ESyjW79y-jE3jF-28" style="edgeStyle=orthogonalEdgeStyle;rounded=0;orthogonalLoop=1;jettySize=auto;html=1;exitX=1;exitY=0.5;exitDx=0;exitDy=0;entryX=0;entryY=0.5;entryDx=0;entryDy=0;endArrow=none;endFill=0;" edge="1" parent="1" source="peCus3ESyjW79y-jE3jF-6" target="peCus3ESyjW79y-jE3jF-19">
          <mxGeometry relative="1" as="geometry" />
        </mxCell>
        <mxCell id="peCus3ESyjW79y-jE3jF-33" style="edgeStyle=orthogonalEdgeStyle;rounded=0;orthogonalLoop=1;jettySize=auto;html=1;exitX=0.377;exitY=1.01;exitDx=0;exitDy=0;entryX=0.5;entryY=0;entryDx=0;entryDy=0;endArrow=none;endFill=0;exitPerimeter=0;" edge="1" parent="1" source="peCus3ESyjW79y-jE3jF-36" target="peCus3ESyjW79y-jE3jF-16">
          <mxGeometry relative="1" as="geometry">
            <Array as="points">
              <mxPoint x="575" y="583" />
            </Array>
          </mxGeometry>
        </mxCell>
        <mxCell id="peCus3ESyjW79y-jE3jF-6" value="Productos" style="whiteSpace=wrap;html=1;align=center;" vertex="1" parent="1">
          <mxGeometry x="545" y="520" width="60" height="30" as="geometry" />
        </mxCell>
        <mxCell id="peCus3ESyjW79y-jE3jF-7" value="Precio" style="shape=ext;margin=3;double=1;whiteSpace=wrap;html=1;align=center;" vertex="1" parent="1">
          <mxGeometry x="545" y="770" width="60" height="30" as="geometry" />
        </mxCell>
        <mxCell id="peCus3ESyjW79y-jE3jF-8" value="Categorias" style="whiteSpace=wrap;html=1;align=center;" vertex="1" parent="1">
          <mxGeometry x="860" y="520" width="70" height="30" as="geometry" />
        </mxCell>
        <mxCell id="peCus3ESyjW79y-jE3jF-9" value="Localidad" style="whiteSpace=wrap;html=1;align=center;" vertex="1" parent="1">
          <mxGeometry x="680" y="180" width="60" height="30" as="geometry" />
        </mxCell>
        <mxCell id="peCus3ESyjW79y-jE3jF-25" style="edgeStyle=orthogonalEdgeStyle;rounded=0;orthogonalLoop=1;jettySize=auto;html=1;exitX=0.5;exitY=1;exitDx=0;exitDy=0;entryX=0.5;entryY=0;entryDx=0;entryDy=0;endArrow=none;endFill=0;" edge="1" parent="1" source="peCus3ESyjW79y-jE3jF-10" target="peCus3ESyjW79y-jE3jF-20">
          <mxGeometry relative="1" as="geometry" />
        </mxCell>
        <mxCell id="peCus3ESyjW79y-jE3jF-10" value="Provincia" style="whiteSpace=wrap;html=1;align=center;" vertex="1" parent="1">
          <mxGeometry x="680" width="60" height="30" as="geometry" />
        </mxCell>
        <mxCell id="peCus3ESyjW79y-jE3jF-16" value="precios_prod" style="shape=rhombus;double=1;perimeter=rhombusPerimeter;whiteSpace=wrap;html=1;align=center;" vertex="1" parent="1">
          <mxGeometry x="530" y="650" width="90" height="60" as="geometry" />
        </mxCell>
        <mxCell id="peCus3ESyjW79y-jE3jF-31" style="edgeStyle=orthogonalEdgeStyle;rounded=0;orthogonalLoop=1;jettySize=auto;html=1;exitX=0.5;exitY=1;exitDx=0;exitDy=0;endArrow=none;endFill=0;" edge="1" parent="1" source="peCus3ESyjW79y-jE3jF-17" target="peCus3ESyjW79y-jE3jF-5">
          <mxGeometry relative="1" as="geometry" />
        </mxCell>
        <mxCell id="peCus3ESyjW79y-jE3jF-35" style="edgeStyle=orthogonalEdgeStyle;rounded=0;orthogonalLoop=1;jettySize=auto;html=1;exitX=1;exitY=0.5;exitDx=0;exitDy=0;entryX=0;entryY=0.25;entryDx=0;entryDy=0;endArrow=none;endFill=0;" edge="1" parent="1" source="peCus3ESyjW79y-jE3jF-17" target="peCus3ESyjW79y-jE3jF-6">
          <mxGeometry relative="1" as="geometry" />
        </mxCell>
        <mxCell id="peCus3ESyjW79y-jE3jF-17" value="requiere" style="shape=rhombus;perimeter=rhombusPerimeter;whiteSpace=wrap;html=1;align=center;" vertex="1" parent="1">
          <mxGeometry x="220" y="400" width="60" height="50" as="geometry" />
        </mxCell>
        <mxCell id="peCus3ESyjW79y-jE3jF-27" style="edgeStyle=orthogonalEdgeStyle;rounded=0;orthogonalLoop=1;jettySize=auto;html=1;exitX=0.5;exitY=1;exitDx=0;exitDy=0;entryX=0.5;entryY=0;entryDx=0;entryDy=0;endArrow=none;endFill=0;" edge="1" parent="1" source="peCus3ESyjW79y-jE3jF-18" target="peCus3ESyjW79y-jE3jF-6">
          <mxGeometry relative="1" as="geometry" />
        </mxCell>
        <mxCell id="peCus3ESyjW79y-jE3jF-18" value="prod_proveedor" style="shape=rhombus;perimeter=rhombusPerimeter;whiteSpace=wrap;html=1;align=center;" vertex="1" parent="1">
          <mxGeometry x="525" y="400" width="100" height="50" as="geometry" />
        </mxCell>
        <mxCell id="peCus3ESyjW79y-jE3jF-29" style="edgeStyle=orthogonalEdgeStyle;rounded=0;orthogonalLoop=1;jettySize=auto;html=1;exitX=1;exitY=0.5;exitDx=0;exitDy=0;entryX=0;entryY=0.5;entryDx=0;entryDy=0;endArrow=none;endFill=0;" edge="1" parent="1" source="peCus3ESyjW79y-jE3jF-19" target="peCus3ESyjW79y-jE3jF-8">
          <mxGeometry relative="1" as="geometry" />
        </mxCell>
        <mxCell id="peCus3ESyjW79y-jE3jF-19" value="categorias_prod" style="shape=rhombus;perimeter=rhombusPerimeter;whiteSpace=wrap;html=1;align=center;" vertex="1" parent="1">
          <mxGeometry x="740" y="505" width="80" height="60" as="geometry" />
        </mxCell>
        <mxCell id="peCus3ESyjW79y-jE3jF-24" style="edgeStyle=orthogonalEdgeStyle;rounded=0;orthogonalLoop=1;jettySize=auto;html=1;exitX=0.5;exitY=1;exitDx=0;exitDy=0;endArrow=none;endFill=0;" edge="1" parent="1" source="peCus3ESyjW79y-jE3jF-20" target="peCus3ESyjW79y-jE3jF-9">
          <mxGeometry relative="1" as="geometry" />
        </mxCell>
        <mxCell id="peCus3ESyjW79y-jE3jF-20" value="ubicada" style="shape=rhombus;perimeter=rhombusPerimeter;whiteSpace=wrap;html=1;align=center;" vertex="1" parent="1">
          <mxGeometry x="685" y="80" width="50" height="40" as="geometry" />
        </mxCell>
        <mxCell id="peCus3ESyjW79y-jE3jF-23" style="edgeStyle=orthogonalEdgeStyle;rounded=0;orthogonalLoop=1;jettySize=auto;html=1;exitX=1;exitY=0.5;exitDx=0;exitDy=0;entryX=0;entryY=0.5;entryDx=0;entryDy=0;endArrow=none;endFill=0;" edge="1" parent="1" source="peCus3ESyjW79y-jE3jF-21" target="peCus3ESyjW79y-jE3jF-9">
          <mxGeometry relative="1" as="geometry" />
        </mxCell>
        <mxCell id="peCus3ESyjW79y-jE3jF-21" value="ubicada" style="shape=rhombus;perimeter=rhombusPerimeter;whiteSpace=wrap;html=1;align=center;" vertex="1" parent="1">
          <mxGeometry x="540" y="175" width="55" height="40" as="geometry" />
        </mxCell>
        <mxCell id="peCus3ESyjW79y-jE3jF-34" value="" style="shape=link;html=1;rounded=0;entryX=0.5;entryY=0;entryDx=0;entryDy=0;exitX=0.5;exitY=1;exitDx=0;exitDy=0;" edge="1" parent="1" source="peCus3ESyjW79y-jE3jF-16" target="peCus3ESyjW79y-jE3jF-7">
          <mxGeometry width="100" relative="1" as="geometry">
            <mxPoint x="420" y="610" as="sourcePoint" />
            <mxPoint x="520" y="610" as="targetPoint" />
            <Array as="points" />
          </mxGeometry>
        </mxCell>
        <mxCell id="peCus3ESyjW79y-jE3jF-36" value="" style="swimlane;startSize=0;" vertex="1" parent="1">
          <mxGeometry x="480" y="290" width="230" height="290" as="geometry" />
        </mxCell>
      </root>
    </mxGraphModel>
  </diagram>
</mxfile>
